<?xml version="1.0" standalone="no"?><!DOCTYPE svg PUBLIC "-//W3C//DTD SVG 1.1//EN" "http://www.w3.org/Graphics/SVG/1.1/DTD/svg11.dtd"><svg t="1554203862157" class="icon" style="" viewBox="0 0 1024 1024" version="1.1" xmlns="http://www.w3.org/2000/svg" p-id="6002" xmlns:xlink="http://www.w3.org/1999/xlink" width="200" height="200"><defs><style type="text/css"></style></defs><path d="M746.96 828.952h41.177c23.839 0 43.344-14.448 43.344-32.146 0-17.7-19.505-32.147-43.344-32.147H746.96c-23.839 0-43.344 14.448-43.344 32.147 0.361 17.698 19.505 32.146 43.344 32.146z m0-191.796h41.177c23.839 0 43.344-14.448 43.344-32.147 0-17.699-19.505-32.147-43.344-32.147H746.96c-23.839 0-43.344 14.448-43.344 32.147 0.361 17.699 19.505 32.147 43.344 32.147z m-255.729 0h41.538c23.84 0 43.344-14.448 43.344-32.147 0-17.699-19.505-32.147-43.344-32.147h-41.538c-23.84 0-43.344 14.448-43.344 32.147 0 17.699 19.505 32.147 43.344 32.147z m-255.729 0h41.177c23.839 0 43.344-14.448 43.344-32.147 0-17.699-19.505-32.147-43.344-32.147h-41.177c-23.84 0-43.344 14.448-43.344 32.147 0 17.699 19.144 32.147 43.344 32.147z m255.729 191.796h41.538c23.84 0 43.344-14.448 43.344-32.146 0-17.7-19.505-32.147-43.344-32.147h-41.538c-23.84 0-43.344 14.448-43.344 32.147 0 17.698 19.505 32.146 43.344 32.146z m-255.729 0h41.177c23.839 0 43.344-14.448 43.344-32.146 0-17.7-19.505-32.147-43.344-32.147h-41.177c-23.84 0-43.344 14.448-43.344 32.147 0 17.698 19.144 32.146 43.344 32.146z" p-id="6003"></path><path d="M835.093 124.975h-64.655V31.424C770.438 14.087 756.351 0 739.014 0c-16.977 0-31.063 13.726-31.425 31.063v94.273H318.94V31.424C318.939 14.087 304.852 0 287.515 0c-16.977 0-31.064 13.726-31.064 31.063v94.273h-67.905C84.521 124.975 0 197.937 0 335.554v494.843c0 98.969 75.13 180.6 170.486 189.63l664.607 0.722c104.025 0 188.546-85.243 188.546-190.352V315.688c0-105.109-84.52-190.713-188.546-190.713zM959.707 849.18c0 59.597-51.652 107.637-114.862 107.637h-665.69c-63.571 0-114.862-48.4-114.862-107.637V444.998h895.775l-0.361 404.182z m0-552.274v84.16H64.293v-84.16c0-52.735 46.234-107.638 127.865-107.638h64.293v96.08c0.362 16.615 14.448 30.34 31.425 30.34 17.337 0 31.424-14.087 31.424-31.424v-94.996h388.65v96.08c0.362 16.615 14.449 30.34 31.425 30.34 17.338 0 31.424-14.087 31.424-31.424v-94.996h61.043c63.21 0 133.644 46.595 127.865 107.638z" p-id="6004"></path></svg>