<?xml version="1.0" standalone="no"?><!DOCTYPE svg PUBLIC "-//W3C//DTD SVG 1.1//EN" "http://www.w3.org/Graphics/SVG/1.1/DTD/svg11.dtd"><svg t="1554196107664" class="icon" style="" viewBox="0 0 1024 1024" version="1.1" xmlns="http://www.w3.org/2000/svg" p-id="3652" xmlns:xlink="http://www.w3.org/1999/xlink" width="200" height="200"><defs><style type="text/css"></style></defs><path d="M627.677867 203.1616c-12.322133-38.126933-33.416533-73.5232-60.689067-105.984a421.12 421.12 0 0 0-48.725333-49.066667 295.594667 295.594667 0 0 0-22.920534-18.0224c-18.909867-12.970667-44.049067 3.549867-39.594666 26.0608 0.034133 0.221867 0.187733 1.297067 0.392533 3.140267 1.3824 13.0048 0.682667 29.696-3.771733 48.605867-6.5536 27.767467-20.189867 55.176533-42.734934 81.134933-6.263467 7.2192-13.192533 14.267733-20.804266 21.128533-7.953067 7.202133-16.9472 14.660267-27.733334 23.108267-9.659733 7.5776-54.2208 40.994133-66.3552 50.517333-112.5376 88.183467-166.741333 175.377067-166.741333 319.488C128 821.521067 304.896 998.4 523.1104 998.4s395.1104-176.896 395.1104-395.1104c0-93.3376-39.850667-190.071467-105.8816-285.405867a930.628267 930.628267 0 0 0-71.645867-90.658133 800.426667 800.426667 0 0 0-23.722666-25.3952 404.104533 404.104533 0 0 0-9.352534-9.335467c-16.469333-15.6672-43.656533-3.720533-43.264 18.9952 0 0.768-0.034133 2.4576-0.187733 4.846934a133.905067 133.905067 0 0 1-1.536 13.038933 130.986667 130.986667 0 0 1-12.305067 38.126933c-3.413333 6.656-7.338667 12.7488-11.895466 18.261334 1.826133-25.873067-1.194667-53.0432-10.752-82.602667z m-99.8912-73.045333c23.313067 27.733333 41.079467 57.5488 51.2 88.797866 11.008 34.0992 10.786133 63.317333 3.7888 91.716267-1.143467 4.693333-4.778667 17.3056-4.676267 16.878933-1.245867 4.693333-1.809067 7.662933-1.570133 12.066134a26.333867 26.333867 0 0 0 34.901333 23.808c39.355733-13.141333 67.157333-38.7584 84.48-72.533334 4.181333-8.209067 7.645867-16.64 10.427733-25.1904a878.5408 878.5408 0 0 1 63.914667 81.373867c60.637867 87.552 96.768 175.274667 96.768 256.256 0 189.934933-153.975467 343.9104-343.893333 343.9104-189.952 0-343.927467-153.975467-343.927467-343.9104 0-126.088533 45.858133-199.850667 147.114667-279.210667 11.5712-9.0624 56.132267-42.496 66.372266-50.517333a568.610133 568.610133 0 0 0 30.446934-25.378133 295.2704 295.2704 0 0 0 25.156266-25.582934c33.672533-38.7584 51.131733-79.0016 57.258667-116.650666 7.594667 7.543467 15.0528 15.598933 22.237867 24.149333z" fill="#d81e06" p-id="3653"></path><path d="M290.133333 480.2048c0-9.3696 7.662933-16.9472 16.9984-16.9472h7.7824c9.386667 0 16.9984 7.6288 16.9984 17.1008v107.8272h51.6096v-107.8272c0-9.437867 7.662933-17.1008 16.9984-17.1008h7.7824c9.386667 0 16.9984 7.799467 16.9984 16.9472v257.7408a16.9984 16.9984 0 0 1-16.9984 16.9472h-7.7824a17.066667 17.066667 0 0 1-16.9984-16.981333v-112.861867h-51.6096v112.861867c0 9.386667-7.662933 16.981333-16.9984 16.981333h-7.7824c-9.386667 0-16.9984-7.799467-16.9984-16.9472V480.2048z m172.032 51.8656c0-11.741867 2.048-22.1184 6.144-31.1296s9.489067-16.452267 16.1792-22.3232a69.7344 69.7344 0 0 1 22.528-13.312c8.328533-3.003733 16.725333-4.5056 25.1904-4.5056s16.861867 1.501867 25.1904 4.5056c8.328533 3.003733 15.837867 7.441067 22.528 13.312 6.690133 5.870933 12.0832 13.312 16.1792 22.3232s6.144 19.387733 6.144 31.1296V686.08c0 12.014933-2.048 22.459733-6.144 31.3344s-9.489067 16.247467-16.1792 22.1184a69.7344 69.7344 0 0 1-22.528 13.312c-8.328533 3.003733-16.725333 4.5056-25.1904 4.5056s-16.861867-1.501867-25.1904-4.5056a69.7344 69.7344 0 0 1-22.528-13.312 65.416533 65.416533 0 0 1-16.1792-22.1184c-4.096-8.874667-6.144-19.319467-6.144-31.3344v-154.0096z m41.7792 154.0096c0 10.103467 2.798933 17.544533 8.3968 22.3232 5.597867 4.778667 12.219733 7.168 19.8656 7.168 7.645867 0 14.267733-2.389333 19.8656-7.168 5.597867-4.778667 8.3968-12.219733 8.3968-22.3232v-154.0096c0-10.103467-2.798933-17.544533-8.3968-22.3232a29.610667 29.610667 0 0 0-19.8656-7.168c-7.645867 0-14.267733 2.389333-19.8656 7.168-5.597867 4.778667-8.3968 12.219733-8.3968 22.3232V686.08z m162.6112-183.5008h-31.4368a16.913067 16.913067 0 0 1-16.896-16.896v-5.5296c0-9.335467 7.645867-16.896 16.981334-16.896h104.482133c9.386667 0 16.981333 7.5776 16.981333 16.896v5.5296a16.896 16.896 0 0 1-16.896 16.896h-31.4368v235.3664a16.9984 16.9984 0 0 1-16.9984 16.9472h-7.7824a16.9472 16.9472 0 0 1-16.9984-16.9472V502.5792z" fill="#d81e06" p-id="3654"></path></svg>