<?xml version="1.0" standalone="no"?><!DOCTYPE svg PUBLIC "-//W3C//DTD SVG 1.1//EN" "http://www.w3.org/Graphics/SVG/1.1/DTD/svg11.dtd"><svg t="1554204198414" class="icon" style="" viewBox="0 0 1024 1024" version="1.1" xmlns="http://www.w3.org/2000/svg" p-id="6834" xmlns:xlink="http://www.w3.org/1999/xlink" width="200" height="200"><defs><style type="text/css"></style></defs><path d="M957.971679 501.685074c-6.928806-9.940396-172.653245-243.818051-441.060321-243.818051-268.409123 0-434.131515 233.877655-441.061344 243.818051-10.730389 15.408945-10.730389 35.877115 0 51.284013 6.928806 9.94142 172.652222 243.819075 441.061344 243.819075 268.407076 0 434.130492-233.877655 441.060321-243.819075C968.701045 537.561166 968.701045 517.092995 957.971679 501.685074zM516.911358 751.877299c-248.028956 0-404.191622-224.550219-404.191622-224.550219s156.161642-224.551242 404.191622-224.551242c248.028956 0 404.190599 224.551242 404.190599 224.551242S764.940314 751.877299 516.911358 751.877299z" p-id="6835"></path><path d="M516.911358 347.687724c-99.206466 0-179.641403 80.434937-179.641403 179.64038s80.434937 179.64038 179.641403 179.64038c99.205443 0 179.639357-80.434937 179.639357-179.64038S616.116801 347.687724 516.911358 347.687724zM516.911358 662.057621c-74.2951 0-134.730541-60.435441-134.730541-134.729517s60.435441-134.730541 134.730541-134.730541c74.294077 0 134.728494 60.435441 134.728494 134.730541S591.205435 662.057621 516.911358 662.057621z" p-id="6836"></path></svg>