<?xml version="1.0" standalone="no"?><!DOCTYPE svg PUBLIC "-//W3C//DTD SVG 1.1//EN" "http://www.w3.org/Graphics/SVG/1.1/DTD/svg11.dtd"><svg t="1554199092520" class="icon" style="" viewBox="0 0 1024 1024" version="1.1" xmlns="http://www.w3.org/2000/svg" p-id="3994" xmlns:xlink="http://www.w3.org/1999/xlink" width="200" height="200"><defs><style type="text/css"></style></defs><path d="M113.42 792.32v71.44h797.16v-71.44S707.4 747 512 796c0 0-191.48-51.76-398.58-3.68z" fill="#C5E3FF" p-id="3995"></path><path d="M915.58 868.76H108.42v-80.41l3.87-0.9c107.63-25 210.88-22.66 278.55-16.3 66.75 6.27 113 17.6 121.19 19.68 101.17-25.14 204.18-24.78 272.88-20 74.73 5.17 126.24 16.52 126.76 16.64l3.91 0.87z m-797.16-10h787.16v-62.37c-13.28-2.69-59.23-11.32-121.58-15.62-68.22-4.71-170.58-5-270.81 20.08l-1.26 0.32-1.26-0.34c-0.48-0.13-48.48-12.94-121-19.74-66.06-6.19-166.41-8.5-271.25 15.22z" fill="#3D9FF9" p-id="3996"></path><path d="M518.21 810.47l-13-4.17c-0.47-0.15-48.52-15.3-120.28-22.78-66-6.88-166.14-8.51-268.54 22.82l-12.93 4V236l6.68-2.35c2.45-0.86 61-21.26 140-31.68 46.53-6.13 90.43-7.46 130.47-3.95 50.47 4.43 95 16.61 132.27 36.21l5.35 2.81z m-212.77-51.12a787.1 787.1 0 0 1 82.08 4.34c52.14 5.47 91.46 14.68 110.7 19.83v-534.3c-33.85-16.76-74-27.28-119.37-31.26-38.59-3.39-81-2.09-126.1 3.85a779.56 779.56 0 0 0-129.32 28.51v533.1a654.13 654.13 0 0 1 136.17-22.66q22.67-1.41 45.84-1.41z" fill="#3D9FF9" p-id="3997"></path><path d="M508.61 810.49V237.08l5.32-2.82c37-19.6 81.25-31.79 131.37-36.22 39.76-3.51 83.36-2.19 129.57 3.95 78.48 10.42 136.61 30.82 139.05 31.69l6.66 2.36v574.28l-12.94-4C806 775 706.57 776.64 641.07 783.52c-71.23 7.48-118.93 22.62-119.4 22.78z m20-561.29v534.29c19.14-5.15 58.14-14.34 109.82-19.8 64.72-6.84 161.64-8.7 262.15 19.71V250.31a770.66 770.66 0 0 0-128.75-28.55c-44.7-5.91-86.75-7.18-125-3.78-44.95 4.02-84.69 14.5-118.22 31.22zM393.86 381.33H200.67a12.5 12.5 0 0 1 0-25h193.19a12.5 12.5 0 0 1 0 25zM393.86 514H200.67a12.5 12.5 0 0 1 0-25h193.19a12.5 12.5 0 1 1 0 25zM393.86 646.57H200.67a12.5 12.5 0 0 1 0-25h193.19a12.5 12.5 0 0 1 0 25z" fill="#3D9FF9" p-id="3998"></path><path d="M811.19 381.33H618a12.5 12.5 0 0 1 0-25h193.19a12.5 12.5 0 1 1 0 25zM811.19 514H618a12.5 12.5 0 0 1 0-25h193.19a12.5 12.5 0 1 1 0 25zM811.19 646.57H618a12.5 12.5 0 0 1 0-25h193.19a12.5 12.5 0 0 1 0 25z" fill="#3D9FF9" p-id="3999"></path><path d="M913.08 867.05H110.92v-99.33h5v94.33h792.16v-94.33h5v99.33z" fill="#4484B7" p-id="4000"></path><path d="M945 373.24v528.31c0 5.29-4.85 9.58-10.84 9.58H89.82c-6 0-10.84-4.29-10.84-9.58V373.24c0-5.29 4.85-9.58 10.84-9.58h12.78c6 0 10.84 4.29 10.84 9.58V855c0 5.29 4.85 9.58 10.84 9.58h775.47c6 0 10.84-4.29 10.84-9.58V373.24c0-5.29 4.85-9.58 10.84-9.58h12.74c5.99 0.01 10.83 4.34 10.83 9.58z" fill="#C5E3FF" p-id="4001"></path><path d="M934.18 923.63H89.82c-12.87 0-23.34-9.9-23.34-22.08V373.24c0-12.17 10.47-22.08 23.34-22.08h12.78c12.87 0 23.34 9.9 23.34 22.08v478.83H898.1V373.24c0-12.17 10.47-22.08 23.34-22.08h12.74c12.87 0 23.34 9.9 23.34 22.08v528.31c0 12.17-10.52 22.08-23.34 22.08z m-842.7-25h841V376.17h-9.38V855c0 12.17-10.47 22.08-23.34 22.08H124.29c-12.87 0-23.34-9.9-23.34-22.08V376.17h-9.47z" fill="#3D9FF9" p-id="4002"></path><path d="M495.42 791.18h37.33v20h-37.33z" fill="#3D9FF9" p-id="4003"></path></svg>